# xmcd
#
# Track frame offsets:
# 150
# 11884
# 27399
# 39612
# 67780
# 88335
# 108281
# 121422
#
# Disc length: 1807 seconds
#
#
# Revision: 0
# Processed by: cddbd v1.5.2PL0 Copyright (c) Steve Scherf et al.
# Submitted via: FreeRIP 2.96 
#
DISCID=65070d08
DTITLE=Larry Gillis - Today Marks The Day
DYEAR=2007
DGENRE=Bluegrass
TTITLE0=Misty
TTITLE1=My Southern Soldier Boy
TTITLE2=House Of Love
TTITLE3=Today Marks the Day
TTITLE4=Lie's
TTITLE5=My Lord Had Mercy on Me
TTITLE6=As I Grow Old
TTITLE7=Oconnee
EXTD=w/ Shirly Seim 
EXTT0=
EXTT1=
EXTT2=
EXTT3=
EXTT4=
EXTT5=
EXTT6=
EXTT7=
PLAYORDER=
